<?xml version="1.0" standalone="no"?>
<!DOCTYPE svg PUBLIC "-//W3C//DTD SVG 20010904//EN"
 "http://www.w3.org/TR/2001/REC-SVG-20010904/DTD/svg10.dtd">
<svg version="1.0" xmlns="http://www.w3.org/2000/svg"
 width="1640.000000pt" height="2360.000000pt" viewBox="0 0 1640.000000 2360.000000"
 preserveAspectRatio="xMidYMid meet">

<g transform="translate(0.000000,2360.000000) scale(0.100000,-0.100000)"
fill="#000000" stroke="none">
<path d="M4495 16615 c-76 -16 -152 -45 -211 -80 -108 -63 -210 -201 -248
-335 -19 -66 -586 -2543 -583 -2546 1 -1 673 -4 1494 -6 l1492 -3 71 290 c38
159 103 429 144 598 l74 308 -129 211 c-72 116 -126 214 -122 218 223 201 440
408 445 424 9 24 208 914 208 927 0 5 -551 9 -1287 8 -1026 0 -1300 -3 -1348
-14z m1333 -768 c19 -2 -9 -32 -157 -169 l-180 -168 -256 0 c-240 0 -256 1
-251 18 3 9 22 84 42 167 19 82 37 152 39 155 3 5 709 2 763 -3z m-535 -1113
c163 -4 299 -9 301 -13 2 -3 -7 -62 -20 -131 -13 -69 -23 -126 -24 -127 0 -2
-83 -3 -184 -3 l-184 0 -579 -269 c-318 -148 -686 -319 -818 -381 -254 -118
-296 -137 -280 -122 6 5 289 179 630 387 341 207 624 380 628 385 8 7 28 89
57 234 l12 58 81 -6 c45 -3 216 -9 380 -12z"/>
<path d="M7520 16614 c0 -25 -92 -441 -226 -1019 -322 -1391 -326 -1411 -328
-1560 -1 -161 16 -218 87 -290 98 -98 -14 -90 1323 -93 l1170 -2 27 117 c16
65 129 564 253 1108 124 545 250 1087 281 1205 89 346 85 430 -25 493 -101 56
-97 56 -1384 57 -1059 0 -1178 -2 -1178 -16z m2490 -88 c0 -2 -240 -154 -532
-337 -293 -182 -536 -335 -540 -338 -4 -3 -81 -322 -171 -709 -91 -387 -167
-705 -169 -706 -13 -10 -1511 -686 -1514 -683 -2 2 235 156 526 343 494 316
530 341 539 374 6 19 78 339 162 710 83 371 153 676 154 678 2 3 1537 671
1543 672 1 0 2 -2 2 -4z"/>
<path d="M10837 16619 c-93 -22 -152 -72 -193 -166 -34 -77 -25 -39 -354
-1483 -56 -245 -146 -640 -200 -879 -55 -239 -99 -435 -97 -436 1 -1 286 173
632 386 377 232 635 397 643 411 9 17 451 1919 499 2151 l6 27 -449 -1 c-247
-1 -466 -5 -487 -10z"/>
<path d="M12755 16611 c-73 -45 -81 -65 -170 -446 l-72 -310 257 -3 258 -2
538 186 c297 102 563 194 593 205 30 10 56 17 58 15 3 -2 -17 -17 -44 -32 -26
-16 -307 -180 -623 -366 -316 -186 -579 -339 -583 -341 -5 -1 -103 -412 -218
-912 -115 -501 -211 -920 -214 -932 l-5 -23 558 0 558 0 32 143 c17 78 54 241
81 362 27 121 115 513 196 870 80 358 155 689 166 736 l20 87 172 4 c197 5
258 22 326 86 48 46 70 113 140 427 29 127 54 238 57 248 5 16 -48 17 -1023
17 -983 0 -1029 -1 -1058 -19z"/>
<path d="M11899 14430 l-266 -5 -811 -385 -812 -385 1061 -3 c584 -1 1064 0
1066 2 6 6 173 747 173 768 0 16 -9 18 -72 16 -40 -1 -193 -5 -339 -8z"/>
</g>
</svg>
