<?xml version="1.0" standalone="no"?>
<!DOCTYPE svg PUBLIC "-//W3C//DTD SVG 20010904//EN"
 "http://www.w3.org/TR/2001/REC-SVG-20010904/DTD/svg10.dtd">
<svg version="1.0" xmlns="http://www.w3.org/2000/svg"
 width="1360.000000pt" height="616.000000pt" viewBox="0 0 1360.000000 616.000000"
 preserveAspectRatio="xMidYMid meet">

<g transform="translate(0.000000,616.000000) scale(0.100000,-0.100000)"
fill="#000000" stroke="none">
<path d="M2075 4825 c-182 -40 -319 -135 -398 -275 -60 -108 -5 117 -538
-2210 -59 -261 -107 -475 -106 -476 1 -1 672 -4 1491 -5 1470 -3 1490 -3 1498
16 4 11 71 280 147 598 l139 578 -130 211 c-105 172 -127 213 -116 223 7 7
108 99 223 205 116 106 213 202 217 214 9 25 208 913 208 926 0 6 -477 10
-1287 9 -1026 0 -1300 -3 -1348 -14z m1333 -768 c19 -2 -8 -32 -155 -169
l-178 -167 -258 -1 c-242 0 -258 1 -253 18 3 9 22 84 42 167 19 82 37 152 39
155 3 5 706 2 763 -3z m-530 -1113 c161 -4 294 -10 296 -13 2 -3 -7 -62 -20
-131 -13 -69 -23 -126 -24 -127 0 -2 -83 -3 -185 -3 l-184 0 -518 -241 c-285
-133 -648 -302 -808 -376 -319 -149 -365 -169 -350 -155 6 5 168 105 360 222
521 317 752 458 832 507 40 25 74 52 77 61 6 21 56 260 56 268 0 4 39 4 88 0
48 -3 219 -9 380 -12z"/>
<path d="M5052 4592 c-29 -136 -116 -519 -193 -852 -304 -1313 -327 -1428
-315 -1560 10 -113 32 -167 89 -225 98 -97 -14 -90 1323 -93 l1171 -2 101 442
c56 244 167 733 248 1088 80 355 173 751 206 880 95 369 91 450 -20 513 -101
56 -98 56 -1382 57 l-1175 0 -53 -248z m2538 144 c0 -2 -240 -154 -532 -337
-293 -182 -536 -335 -540 -338 -4 -3 -81 -322 -171 -709 -91 -387 -167 -705
-169 -706 -13 -10 -1511 -686 -1514 -683 -2 2 234 156 524 342 290 186 530
343 533 347 3 5 43 174 88 376 197 875 234 1037 236 1040 2 3 1537 671 1543
672 1 0 2 -2 2 -4z"/>
<path d="M8410 4826 c-127 -34 -182 -108 -234 -315 -19 -75 -378 -1646 -567
-2476 -16 -71 -31 -140 -34 -152 l-5 -23 1075 0 1075 0 5 22 c52 222 165 734
165 747 0 15 -30 16 -336 12 l-335 -3 -537 -255 c-295 -140 -660 -313 -810
-385 -151 -71 -275 -128 -277 -126 -2 2 278 176 622 388 344 212 630 392 634
400 7 13 499 2155 499 2173 0 13 -891 7 -940 -7z"/>
<path d="M10335 4821 c-73 -45 -80 -63 -169 -445 l-73 -311 256 -3 256 -2 115
39 c211 72 723 248 899 310 96 34 176 59 178 57 2 -2 -13 -14 -34 -26 -21 -12
-299 -175 -618 -362 -319 -187 -587 -348 -596 -357 -9 -9 -28 -68 -43 -131
-50 -221 -386 -1685 -391 -1707 l-5 -23 558 0 558 0 32 142 c42 190 449 1996
457 2030 l7 26 171 4 c199 5 261 22 328 89 48 48 70 116 139 425 28 126 53
237 56 247 5 16 -48 17 -1023 17 -983 0 -1029 -1 -1058 -19z"/>
</g>
</svg>
